<svg data-v-423bf9ae="" xmlns="http://www.w3.org/2000/svg" viewBox="0 0 337.6970820200193 184" class="iconAboveSlogan"><!----><!----><!----><g data-v-423bf9ae="" id="4f611dd9-7b1a-4cc9-9995-99fe8c04765c" fill="#3f5efb" transform="matrix(5.806845692714511,0,0,5.806845692714511,-2.845361586028474,82.57518398709388)"><path d="M2.72 13.52L0.49 3.75L2.32 3.75L3.74 10.00L5.01 5.45L5.01 5.45Q5.25 4.62 5.72 4.15L5.72 4.15L5.72 4.15Q6.19 3.68 7.03 3.75L7.03 3.75L8.81 10.00L9.83 5.43L9.83 5.43Q10.04 4.52 10.56 4.07L10.56 4.07L10.56 4.07Q11.07 3.63 12.04 3.75L12.04 3.75L9.81 13.52L8.04 13.52L6.24 7.21L4.48 13.52L2.72 13.52ZM14.91 3.72L14.91 3.72L14.91 7.73L18.19 7.73L18.19 3.72L20.08 3.72L20.08 13.52L18.19 13.52L18.19 9.52L16.32 9.52L16.32 9.52Q16.09 9.52 15.85 9.46L15.85 9.46L15.85 9.46Q15.61 9.41 15.42 9.28L15.42 9.28L15.42 9.28Q15.23 9.16 15.09 8.95L15.09 8.95L15.09 8.95Q14.95 8.75 14.91 8.44L14.91 8.44L14.91 13.52L13.02 13.52L13.02 5.22L13.02 5.22Q13.02 4.83 13.18 4.54L13.18 4.54L13.18 4.54Q13.34 4.26 13.60 4.07L13.60 4.07L13.60 4.07Q13.86 3.89 14.20 3.81L14.20 3.81L14.20 3.81Q14.55 3.72 14.91 3.72ZM21.34 13.52L24.63 5.03L24.63 5.03Q24.91 4.28 25.46 3.95L25.46 3.95L25.46 3.95Q26.01 3.61 26.98 3.78L26.98 3.78L30.73 13.52L28.80 13.52L28.04 11.52L28.04 11.52Q27.62 11.52 27.13 11.52L27.13 11.52L27.13 11.52Q26.64 11.51 26.24 11.58L26.24 11.58L26.24 11.58Q25.84 11.65 25.62 11.82L25.62 11.82L25.62 11.82Q25.40 12.00 25.51 12.38L25.51 12.38L25.51 12.38Q25.00 12.24 24.75 11.95L24.75 11.95L24.75 11.95Q24.49 11.66 24.43 11.34L24.43 11.34L24.43 11.34Q24.37 11.02 24.50 10.70L24.50 10.70L24.50 10.70Q24.63 10.39 24.88 10.18L24.88 10.18L24.88 10.18Q25.12 9.97 25.42 9.88L25.42 9.88L25.42 9.88Q25.72 9.79 26.05 9.75L26.05 9.75L26.05 9.75Q26.38 9.72 26.71 9.72L26.71 9.72L26.71 9.72Q27.05 9.73 27.36 9.73L27.36 9.73L26.04 6.37L26.04 6.37Q25.59 7.50 25.25 8.39L25.25 8.39L25.25 8.39Q24.91 9.28 24.59 10.09L24.59 10.09L24.59 10.09Q24.28 10.89 23.96 11.71L23.96 11.71L23.96 11.71Q23.65 12.53 23.27 13.52L23.27 13.52L21.34 13.52ZM30.24 5.57L30.24 3.72L36.95 3.72L36.95 3.72Q36.95 4.16 36.82 4.50L36.82 4.50L36.82 4.50Q36.69 4.84 36.48 5.08L36.48 5.08L36.48 5.08Q36.27 5.32 36.00 5.45L36.00 5.45L36.00 5.45Q35.73 5.57 35.42 5.57L35.42 5.57L34.30 5.57L34.30 13.52L32.41 13.52L32.41 5.57L30.24 5.57ZM43.69 3.72L43.69 13.52L41.85 13.52L41.85 5.19L41.85 5.19Q41.85 4.49 42.35 4.10L42.35 4.10L42.35 4.10Q42.85 3.71 43.69 3.72L43.69 3.72ZM46.79 3.72L50.88 3.72L50.88 5.56L47.08 5.56L47.08 7.73L50.88 7.73L50.88 7.73Q50.86 8.05 50.78 8.37L50.78 8.37L50.78 8.37Q50.69 8.69 50.51 8.95L50.51 8.95L50.51 8.95Q50.33 9.20 50.04 9.36L50.04 9.36L50.04 9.36Q49.76 9.52 49.32 9.52L49.32 9.52L47.08 9.52L47.08 13.52L45.23 13.52L45.23 5.38L45.23 5.38Q45.23 4.62 45.58 4.17L45.58 4.17L45.58 4.17Q45.92 3.72 46.79 3.72L46.79 3.72ZM54.00 7.14L54.00 7.14L54.00 7.14Q53.47 7.24 53.10 7.05L53.10 7.05L53.10 7.05Q52.74 6.86 52.56 6.50L52.56 6.50L52.56 6.50Q52.39 6.15 52.42 5.68L52.42 5.68L52.42 5.68Q52.44 5.22 52.70 4.80L52.70 4.80L52.70 4.80Q53.03 4.24 53.59 3.94L53.59 3.94L53.59 3.94Q54.15 3.64 54.79 3.56L54.79 3.56L54.79 3.56Q55.43 3.47 56.06 3.57L56.06 3.57L56.06 3.57Q56.70 3.67 57.19 3.91L57.19 3.91L57.19 3.91Q57.53 4.07 57.82 4.32L57.82 4.32L57.82 4.32Q58.11 4.56 58.32 4.89L58.32 4.89L58.32 4.89Q58.52 5.22 58.60 5.63L58.60 5.63L58.60 5.63Q58.69 6.03 58.60 6.54L58.60 6.54L58.60 6.54Q58.51 7.07 58.28 7.46L58.28 7.46L58.28 7.46Q58.06 7.84 57.79 8.16L57.79 8.16L57.79 8.16Q57.51 8.47 57.23 8.75L57.23 8.75L57.23 8.75Q56.95 9.03 56.73 9.34L56.73 9.34L56.73 9.34Q56.50 9.65 56.38 10.02L56.38 10.02L56.38 10.02Q56.25 10.40 56.29 10.91L56.29 10.91L56.29 10.91Q55.79 10.92 55.45 10.82L55.45 10.82L55.45 10.82Q55.12 10.71 54.91 10.54L54.91 10.54L54.91 10.54Q54.71 10.36 54.63 10.14L54.63 10.14L54.63 10.14Q54.54 9.91 54.54 9.69L54.54 9.69L54.54 9.69Q54.54 9.30 54.66 9.02L54.66 9.02L54.66 9.02Q54.78 8.74 54.98 8.49L54.98 8.49L54.98 8.49Q55.17 8.25 55.43 7.99L55.43 7.99L55.43 7.99Q55.69 7.74 55.99 7.42L55.99 7.42L55.99 7.42Q56.42 6.94 56.56 6.57L56.56 6.57L56.56 6.57Q56.70 6.20 56.63 5.93L56.63 5.93L56.63 5.93Q56.56 5.66 56.32 5.48L56.32 5.48L56.32 5.48Q56.08 5.31 55.78 5.24L55.78 5.24L55.78 5.24Q55.31 5.14 54.88 5.27L54.88 5.27L54.88 5.27Q54.45 5.40 54.17 5.68L54.17 5.68L54.17 5.68Q53.89 5.96 53.82 6.36L53.82 6.36L53.82 6.36Q53.75 6.75 54.00 7.14ZM55.40 13.85L55.40 13.85L55.40 13.85Q55.79 13.85 56.06 13.64L56.06 13.64L56.06 13.64Q56.34 13.43 56.45 13.12L56.45 13.12L56.45 13.12Q56.57 12.81 56.52 12.47L56.52 12.47L56.52 12.47Q56.48 12.12 56.21 11.86L56.21 11.86L56.21 11.86Q56.03 11.68 55.77 11.59L55.77 11.59L55.77 11.59Q55.51 11.49 55.26 11.42L55.26 11.42L55.26 11.42Q55.01 11.35 54.79 11.25L54.79 11.25L54.79 11.25Q54.57 11.14 54.49 10.91L54.49 10.91L54.49 10.91Q54.42 11.13 54.34 11.47L54.34 11.47L54.34 11.47Q54.26 11.82 54.24 12.19L54.24 12.19L54.24 12.19Q54.22 12.57 54.29 12.93L54.29 12.93L54.29 12.93Q54.35 13.29 54.59 13.51L54.59 13.51L54.59 13.51Q54.92 13.85 55.40 13.85Z"></path></g><!----><g data-v-423bf9ae="" id="f4cbf9c9-82c8-47d4-9ee0-381079528caf" transform="matrix(1.3682371950747785,0,0,1.3682371950747785,100.58796297017398,0)" stroke="none" fill="#3f5efb"><path d="M97.628 63.335c-3.061-2.111-5.205-5.248-6.668-8.203 4.943-3.035 8.047-7.408 8.047-12.272 0-8.125-8.665-14.883-20.106-16.313 0 .058.004.116.004.173 0 11.306-10.889 20.897-25.98 24.27 4.22 5.052 12.249 8.467 21.463 8.467 2.85 0 5.586-.328 8.131-.928 5.451 4.078 23.994 10.94 15.109 4.806z"></path><path d="M39.436 0C18.492 0 1.528 11.445 1.528 25.563c0 7.492 4.79 14.232 12.407 18.908-2.253 4.551-5.567 9.37-10.282 12.625-13.686 9.444 14.883-1.124 23.282-7.406a54.475 54.475 0 0 0 12.5 1.438c4.172 0 8.214-.442 11.969-1.281 15.092-3.373 25.97-12.977 25.97-24.283v-.188C77.234 11.338 60.294 0 39.436 0zm-.219 7.282c.973.01 1.95.117 2.906.312 3.83.805 8.369 4.545 8.375 9.969-.007 5.444-4.351 7.509-5.906 8.531-1.553 1.015-2.108 2.193-2.094 3.438v4.594l-5.938.031v-6.844c.005-2.028.659-3.434 2.594-4.688l3.344-2.25c2.134-1.454 2.104-4.378.781-5.688-1.173-1.131-3.115-1.786-5.219-1.375-3.825.786-4.137 3.602-4.125 6.282v1.188h-5.938c.011-5.036.578-7.315 3.219-10.188 2.204-2.427 5.084-3.343 8.001-3.312zM36.53 36.47h6v6.062h-6V36.47z"></path></g><!----><g data-v-423bf9ae="" id="da6e0ef8-969b-472e-83f7-ecdbe1060ba5" fill="#3f5efb" transform="matrix(0.671686441762633,0,0,0.671686441762633,42.45223890673928,202.46383793788928)"><path d="M7.74 13.02L6.58 10.12L2.16 10.12L1.01 13.02L0.27 13.02L3.96 3.78L4.79 3.78L8.48 13.02L7.74 13.02ZM2.42 9.48L6.33 9.48L4.72 5.45L4.38 4.47L4.37 4.47L4.03 5.42L2.42 9.48ZM19.95 3.64L19.95 3.64Q22.55 3.64 23.44 5.68L23.44 5.68L22.83 6.17L22.83 6.17Q22.48 5.18 21.79 4.73L21.79 4.73L21.79 4.73Q21.10 4.28 19.96 4.28L19.96 4.28L19.96 4.28Q19.15 4.28 18.55 4.54L18.55 4.54L18.55 4.54Q17.95 4.79 17.63 5.22L17.63 5.22L17.63 5.22Q17.32 5.66 17.32 6.20L17.32 6.20L17.32 6.20Q17.32 6.73 17.58 7.08L17.58 7.08L17.58 7.08Q17.85 7.43 18.49 7.68L18.49 7.68L18.49 7.68Q19.12 7.92 20.24 8.12L20.24 8.12L20.24 8.12Q22.05 8.43 22.81 9.02L22.81 9.02L22.81 9.02Q23.56 9.60 23.56 10.64L23.56 10.64L23.56 10.64Q23.56 11.38 23.13 11.96L23.13 11.96L23.13 11.96Q22.69 12.53 21.90 12.84L21.90 12.84L21.90 12.84Q21.11 13.16 20.09 13.16L20.09 13.16L20.09 13.16Q18.63 13.16 17.63 12.58L17.63 12.58L17.63 12.58Q16.63 12.00 16.27 10.95L16.27 10.95L16.88 10.47L16.88 10.47Q17.16 11.47 18.01 11.99L18.01 11.99L18.01 11.99Q18.86 12.52 20.10 12.52L20.10 12.52L20.10 12.52Q21.31 12.52 22.07 12.03L22.07 12.03L22.07 12.03Q22.83 11.54 22.83 10.68L22.83 10.68L22.83 10.68Q22.83 9.94 22.21 9.51L22.21 9.51L22.21 9.51Q21.59 9.07 20.05 8.81L20.05 8.81L20.05 8.81Q18.75 8.58 17.99 8.26L17.99 8.26L17.99 8.26Q17.23 7.94 16.91 7.46L16.91 7.46L16.91 7.46Q16.58 6.99 16.58 6.27L16.58 6.27L16.58 6.27Q16.58 5.56 16.99 4.96L16.99 4.96L16.99 4.96Q17.40 4.35 18.16 4.00L18.16 4.00L18.16 4.00Q18.93 3.64 19.95 3.64L19.95 3.64ZM38.70 13.02L35.31 8.04L33.46 9.91L33.46 13.02L32.76 13.02L32.76 3.78L33.46 3.78L33.46 8.96L38.53 3.78L39.45 3.78L35.80 7.52L39.55 13.02L38.70 13.02ZM49 3.78L49 13.02L48.30 13.02L48.30 3.78L49 3.78ZM66.01 3.78L66.01 13.02L65.14 13.02L60.24 5.77L59.56 4.54L59.54 4.54L59.58 5.70L59.58 13.02L58.91 13.02L58.91 3.78L59.79 3.78L64.68 11.02L65.38 12.26L65.35 11.10L65.35 3.78L66.01 3.78ZM79.48 8.50L83.27 8.50L83.27 13.02L82.71 13.02L82.68 11.41L82.68 11.41Q82.31 12.25 81.50 12.71L81.50 12.71L81.50 12.71Q80.70 13.16 79.51 13.16L79.51 13.16L79.51 13.16Q78.25 13.16 77.30 12.58L77.30 12.58L77.30 12.58Q76.36 12.00 75.85 10.92L75.85 10.92L75.85 10.92Q75.33 9.84 75.33 8.40L75.33 8.40L75.33 8.40Q75.33 6.96 75.86 5.88L75.86 5.88L75.86 5.88Q76.38 4.80 77.34 4.22L77.34 4.22L77.34 4.22Q78.29 3.64 79.55 3.64L79.55 3.64L79.55 3.64Q80.96 3.64 81.86 4.20L81.86 4.20L81.86 4.20Q82.75 4.76 83.20 5.91L83.20 5.91L82.56 6.24L82.56 6.24Q82.24 5.28 81.47 4.78L81.47 4.78L81.47 4.78Q80.71 4.28 79.55 4.28L79.55 4.28L79.55 4.28Q78.51 4.28 77.73 4.78L77.73 4.78L77.73 4.78Q76.94 5.28 76.51 6.21L76.51 6.21L76.51 6.21Q76.08 7.14 76.08 8.40L76.08 8.40L76.08 8.40Q76.08 10.32 76.99 11.42L76.99 11.42L76.99 11.42Q77.91 12.52 79.53 12.52L79.53 12.52L79.53 12.52Q80.54 12.52 81.24 12.12L81.24 12.12L81.24 12.12Q81.94 11.72 82.28 11.07L82.28 11.07L82.28 11.07Q82.61 10.42 82.61 9.67L82.61 9.67L82.61 9.16L79.48 9.16L79.48 8.50ZM110.05 3.78L110.05 4.42L106.68 4.42L106.68 13.02L105.98 13.02L105.98 4.42L102.61 4.42L102.61 3.78L110.05 3.78ZM125.23 3.78L125.93 3.78L125.93 13.02L125.23 13.02L125.23 8.65L119.52 8.65L119.52 13.02L118.82 13.02L118.82 3.78L119.52 3.78L119.52 7.99L125.23 7.99L125.23 3.78ZM136.54 12.38L142.38 12.38L142.38 13.02L135.84 13.02L135.84 3.78L142.16 3.78L142.16 4.42L136.54 4.42L136.54 7.99L140.98 7.99L140.98 8.65L136.54 8.65L136.54 12.38ZM169.74 13.02L168.91 13.02L166.26 9.02L166.22 9.02L163.49 9.02L163.49 13.02L162.79 13.02L162.79 3.78L166.22 3.78L166.22 3.78Q167.61 3.78 168.43 4.48L168.43 4.48L168.43 4.48Q169.25 5.18 169.25 6.40L169.25 6.40L169.25 6.40Q169.25 7.41 168.66 8.07L168.66 8.07L168.66 8.07Q168.07 8.74 167.05 8.93L167.05 8.93L169.74 13.02ZM163.49 4.42L163.49 8.36L166.21 8.36L166.21 8.36Q167.33 8.36 167.92 7.85L167.92 7.85L167.92 7.85Q168.52 7.35 168.52 6.40L168.52 6.40L168.52 6.40Q168.52 5.45 167.92 4.93L167.92 4.93L167.92 4.93Q167.33 4.42 166.21 4.42L166.21 4.42L163.49 4.42ZM179.45 12.38L185.29 12.38L185.29 13.02L178.75 13.02L178.75 3.78L185.07 3.78L185.07 4.42L179.45 4.42L179.45 7.99L183.89 7.99L183.89 8.65L179.45 8.65L179.45 12.38ZM200.61 13.02L199.44 10.12L195.02 10.12L193.87 13.02L193.13 13.02L196.83 3.78L197.65 3.78L201.35 13.02L200.61 13.02ZM195.29 9.48L199.19 9.48L197.58 5.45L197.25 4.47L197.23 4.47L196.90 5.42L195.29 9.48ZM210.77 12.38L216.31 12.38L216.31 13.02L210.07 13.02L210.07 3.78L210.77 3.78L210.77 12.38ZM242.13 15.05L242.13 15.05Q242.61 15.05 243.02 14.92L243.02 14.92L243.02 14.92Q243.43 14.78 243.68 14.53L243.68 14.53L243.94 15.18L243.94 15.18Q243.64 15.44 243.15 15.60L243.15 15.60L243.15 15.60Q242.65 15.75 242.12 15.75L242.12 15.75L242.12 15.75Q241.01 15.75 240.28 15.11L240.28 15.11L240.28 15.11Q239.55 14.46 239.47 13.15L239.47 13.15L239.47 13.15Q238.25 13.09 237.36 12.49L237.36 12.49L237.36 12.49Q236.46 11.90 235.98 10.85L235.98 10.85L235.98 10.85Q235.49 9.80 235.49 8.40L235.49 8.40L235.49 8.40Q235.49 6.94 236.01 5.87L236.01 5.87L236.01 5.87Q236.53 4.80 237.49 4.22L237.49 4.22L237.49 4.22Q238.45 3.64 239.75 3.64L239.75 3.64L239.75 3.64Q241.05 3.64 242.01 4.22L242.01 4.22L242.01 4.22Q242.97 4.80 243.49 5.87L243.49 5.87L243.49 5.87Q244.01 6.94 244.01 8.40L244.01 8.40L244.01 8.40Q244.01 9.79 243.53 10.83L243.53 10.83L243.53 10.83Q243.05 11.87 242.18 12.47L242.18 12.47L242.18 12.47Q241.30 13.08 240.10 13.15L240.10 13.15L240.10 13.15Q240.25 15.05 242.13 15.05L242.13 15.05ZM236.24 8.40L236.24 8.40Q236.24 9.66 236.66 10.59L236.66 10.59L236.66 10.59Q237.09 11.52 237.88 12.02L237.88 12.02L237.88 12.02Q238.67 12.52 239.75 12.52L239.75 12.52L239.75 12.52Q240.83 12.52 241.63 12.02L241.63 12.02L241.63 12.02Q242.42 11.52 242.85 10.59L242.85 10.59L242.85 10.59Q243.28 9.66 243.28 8.40L243.28 8.40L243.28 8.40Q243.28 7.14 242.85 6.21L242.85 6.21L242.85 6.21Q242.42 5.28 241.63 4.78L241.63 4.78L241.63 4.78Q240.83 4.28 239.75 4.28L239.75 4.28L239.75 4.28Q238.67 4.28 237.88 4.78L237.88 4.78L237.88 4.78Q237.09 5.28 236.66 6.21L236.66 6.21L236.66 6.21Q236.24 7.14 236.24 8.40L236.24 8.40ZM260.34 3.78L260.34 9.65L260.34 9.65Q260.34 11.35 259.42 12.26L259.42 12.26L259.42 12.26Q258.50 13.16 256.79 13.16L256.79 13.16L256.79 13.16Q255.08 13.16 254.15 12.26L254.15 12.26L254.15 12.26Q253.22 11.35 253.22 9.65L253.22 9.65L253.22 3.78L253.92 3.78L253.92 9.51L253.92 9.51Q253.92 10.99 254.65 11.75L254.65 11.75L254.65 11.75Q255.37 12.52 256.79 12.52L256.79 12.52L256.79 12.52Q258.19 12.52 258.92 11.75L258.92 11.75L258.92 11.75Q259.64 10.99 259.64 9.51L259.64 9.51L259.64 3.78L260.34 3.78ZM270.84 12.38L276.68 12.38L276.68 13.02L270.14 13.02L270.14 3.78L276.46 3.78L276.46 4.42L270.84 4.42L270.84 7.99L275.28 7.99L275.28 8.65L270.84 8.65L270.84 12.38ZM288.57 3.64L288.57 3.64Q291.17 3.64 292.05 5.68L292.05 5.68L291.45 6.17L291.45 6.17Q291.10 5.18 290.41 4.73L290.41 4.73L290.41 4.73Q289.72 4.28 288.58 4.28L288.58 4.28L288.58 4.28Q287.77 4.28 287.17 4.54L287.17 4.54L287.17 4.54Q286.57 4.79 286.25 5.22L286.25 5.22L286.25 5.22Q285.94 5.66 285.94 6.20L285.94 6.20L285.94 6.20Q285.94 6.73 286.20 7.08L286.20 7.08L286.20 7.08Q286.47 7.43 287.11 7.68L287.11 7.68L287.11 7.68Q287.74 7.92 288.86 8.12L288.86 8.12L288.86 8.12Q290.67 8.43 291.42 9.02L291.42 9.02L291.42 9.02Q292.18 9.60 292.18 10.64L292.18 10.64L292.18 10.64Q292.18 11.38 291.75 11.96L291.75 11.96L291.75 11.96Q291.31 12.53 290.52 12.84L290.52 12.84L290.52 12.84Q289.73 13.16 288.71 13.16L288.71 13.16L288.71 13.16Q287.25 13.16 286.25 12.58L286.25 12.58L286.25 12.58Q285.25 12.00 284.89 10.95L284.89 10.95L285.50 10.47L285.50 10.47Q285.78 11.47 286.63 11.99L286.63 11.99L286.63 11.99Q287.48 12.52 288.72 12.52L288.72 12.52L288.72 12.52Q289.93 12.52 290.69 12.03L290.69 12.03L290.69 12.03Q291.45 11.54 291.45 10.68L291.45 10.68L291.45 10.68Q291.45 9.94 290.83 9.51L290.83 9.51L290.83 9.51Q290.21 9.07 288.67 8.81L288.67 8.81L288.67 8.81Q287.36 8.58 286.61 8.26L286.61 8.26L286.61 8.26Q285.85 7.94 285.52 7.46L285.52 7.46L285.52 7.46Q285.19 6.99 285.19 6.27L285.19 6.27L285.19 6.27Q285.19 5.56 285.61 4.96L285.61 4.96L285.61 4.96Q286.02 4.35 286.78 4.00L286.78 4.00L286.78 4.00Q287.55 3.64 288.57 3.64L288.57 3.64ZM307.26 3.78L307.26 4.42L303.88 4.42L303.88 13.02L303.18 13.02L303.18 4.42L299.81 4.42L299.81 3.78L307.26 3.78ZM316.72 3.78L316.72 13.02L316.02 13.02L316.02 3.78L316.72 3.78ZM330.30 3.64L330.30 3.64Q331.60 3.64 332.56 4.22L332.56 4.22L332.56 4.22Q333.52 4.80 334.04 5.87L334.04 5.87L334.04 5.87Q334.56 6.94 334.56 8.40L334.56 8.40L334.56 8.40Q334.56 9.86 334.04 10.93L334.04 10.93L334.04 10.93Q333.52 12.00 332.56 12.58L332.56 12.58L332.56 12.58Q331.60 13.16 330.30 13.16L330.30 13.16L330.30 13.16Q329.00 13.16 328.04 12.58L328.04 12.58L328.04 12.58Q327.08 12.00 326.56 10.93L326.56 10.93L326.56 10.93Q326.05 9.86 326.05 8.40L326.05 8.40L326.05 8.40Q326.05 6.94 326.56 5.87L326.56 5.87L326.56 5.87Q327.08 4.80 328.04 4.22L328.04 4.22L328.04 4.22Q329.00 3.64 330.30 3.64L330.30 3.64ZM330.30 4.28L330.30 4.28Q329.22 4.28 328.43 4.78L328.43 4.78L328.43 4.78Q327.64 5.28 327.22 6.21L327.22 6.21L327.22 6.21Q326.79 7.14 326.79 8.40L326.79 8.40L326.79 8.40Q326.79 9.66 327.22 10.59L327.22 10.59L327.22 10.59Q327.64 11.52 328.43 12.02L328.43 12.02L328.43 12.02Q329.22 12.52 330.30 12.52L330.30 12.52L330.30 12.52Q331.38 12.52 332.18 12.02L332.18 12.02L332.18 12.02Q332.98 11.52 333.40 10.59L333.40 10.59L333.40 10.59Q333.83 9.66 333.83 8.40L333.83 8.40L333.83 8.40Q333.83 7.14 333.40 6.21L333.40 6.21L333.40 6.21Q332.98 5.28 332.18 4.78L332.18 4.78L332.18 4.78Q331.38 4.28 330.30 4.28L330.30 4.28ZM350.98 3.78L350.98 13.02L350.11 13.02L345.21 5.77L344.53 4.54L344.51 4.54L344.55 5.70L344.55 13.02L343.88 13.02L343.88 3.78L344.76 3.78L349.65 11.02L350.35 12.26L350.32 11.10L350.32 3.78L350.98 3.78ZM363.75 3.64L363.75 3.64Q366.35 3.64 367.23 5.68L367.23 5.68L366.63 6.17L366.63 6.17Q366.28 5.18 365.59 4.73L365.59 4.73L365.59 4.73Q364.90 4.28 363.76 4.28L363.76 4.28L363.76 4.28Q362.95 4.28 362.35 4.54L362.35 4.54L362.35 4.54Q361.75 4.79 361.43 5.22L361.43 5.22L361.43 5.22Q361.12 5.66 361.12 6.20L361.12 6.20L361.12 6.20Q361.12 6.73 361.38 7.08L361.38 7.08L361.38 7.08Q361.65 7.43 362.29 7.68L362.29 7.68L362.29 7.68Q362.92 7.92 364.04 8.12L364.04 8.12L364.04 8.12Q365.85 8.43 366.60 9.02L366.60 9.02L366.60 9.02Q367.36 9.60 367.36 10.64L367.36 10.64L367.36 10.64Q367.36 11.38 366.93 11.96L366.93 11.96L366.93 11.96Q366.49 12.53 365.70 12.84L365.70 12.84L365.70 12.84Q364.91 13.16 363.89 13.16L363.89 13.16L363.89 13.16Q362.43 13.16 361.43 12.58L361.43 12.58L361.43 12.58Q360.43 12.00 360.07 10.95L360.07 10.95L360.68 10.47L360.68 10.47Q360.96 11.47 361.81 11.99L361.81 11.99L361.81 11.99Q362.66 12.52 363.90 12.52L363.90 12.52L363.90 12.52Q365.11 12.52 365.87 12.03L365.87 12.03L365.87 12.03Q366.63 11.54 366.63 10.68L366.63 10.68L366.63 10.68Q366.63 9.94 366.01 9.51L366.01 9.51L366.01 9.51Q365.39 9.07 363.85 8.81L363.85 8.81L363.85 8.81Q362.54 8.58 361.79 8.26L361.79 8.26L361.79 8.26Q361.03 7.94 360.70 7.46L360.70 7.46L360.70 7.46Q360.37 6.99 360.37 6.27L360.37 6.27L360.37 6.27Q360.37 5.56 360.79 4.96L360.79 4.96L360.79 4.96Q361.20 4.35 361.96 4.00L361.96 4.00L361.96 4.00Q362.73 3.64 363.75 3.64L363.75 3.64ZM377.08 3.78L377.08 8.26L376.99 10.36L376.43 10.36L376.35 8.26L376.35 3.78L377.08 3.78ZM376.71 11.87L376.71 11.87Q376.99 11.87 377.17 12.05L377.17 12.05L377.17 12.05Q377.34 12.22 377.34 12.50L377.34 12.50L377.34 12.50Q377.34 12.78 377.17 12.96L377.17 12.96L377.17 12.96Q376.99 13.13 376.71 13.13L376.71 13.13L376.71 13.13Q376.43 13.13 376.26 12.96L376.26 12.96L376.26 12.96Q376.08 12.78 376.08 12.50L376.08 12.50L376.08 12.50Q376.08 12.22 376.26 12.05L376.26 12.05L376.26 12.05Q376.43 11.87 376.71 11.87L376.71 11.87Z"></path></g></svg>